<?xml version="1.0" encoding="utf-8"?>
<!-- Generator: Adobe Illustrator 24.2.0, SVG Export Plug-In . SVG Version: 6.00 Build 0)  -->
<svg version="1.1" xmlns="http://www.w3.org/2000/svg" xmlns:xlink="http://www.w3.org/1999/xlink" x="0px" y="0px"
	 viewBox="0 0 805 805" style="enable-background:new 0 0 805 805;" xml:space="preserve">
<style type="text/css">
	.st0{fill:#6666F9;}
	.st1{fill:#3CD4A1;}
	.st2{fill:#E0E0E0;}
	.st3{fill:url(#SVGID_1_);}
	.st4{fill-rule:evenodd;clip-rule:evenodd;fill:#FFFFFF;}
	.st5{fill:#FFFFFF;}
</style>
<g id="Layer_1">
	<g id="Layer_6">
		<rect x="2.5" y="2.5" width="800" height="800"/>
	</g>
	<path class="st0" d="M802.5,400c0,54.3-10.6,107-31.7,156.7c-20.3,48-49.3,91-86.3,127.9c-37,37-80,66-127.9,86.3
		c-49.6,21-102.3,31.7-156.7,31.7c-30.1,0-59.7-3.3-88.5-9.7c8-9.4,15.8-19,23.3-28.9c21.2,3.8,43,5.8,65.2,5.8
		c203.9,0,369.7-165.8,369.7-369.7S603.9,30.3,400,30.3c-9.1,0-18.1,0.3-27.1,1c-6.4-10.5-13.1-20.8-20.2-31.1
		c15.5-1.8,31.4-2.7,47.3-2.7c54.3,0,107,10.6,156.7,31.7c48,20.3,91,49.3,127.9,86.3c37,37,66,80,86.3,127.9
		C791.9,293,802.5,345.7,802.5,400z"/>
	<path class="st1" d="M334.8,763.9c-7.5,9.8-15.3,19.4-23.3,28.9c-23.3-5.2-46-12.5-68.1-21.9c-48-20.3-91-49.3-127.9-86.3
		c-37.1-36.9-66-79.9-86.3-127.9C8.1,507-2.5,454.3-2.5,400S8.1,293,29.2,243.3c20.3-48,49.3-91,86.3-127.9c37-37,80-66,127.9-86.3
		c35-14.9,71.7-24.5,109.4-29c7,10.1,13.7,20.6,20.2,31.1C181.7,45.2,30.3,205.3,30.3,400C30.3,581.6,161.9,733,334.8,763.9z"/>
</g>
<g id="Layer_5">
</g>
<g id="Layer_4_1_">
</g>
<g id="Layer_3_1_">
</g>
<g id="Layer_2">
	<path class="st2" d="M650.9,151.7C584.1,84.9,495.3,48.1,400.8,48.1c-194.9,0-353.4,158.5-353.5,353.4
		c0,62.3,16.3,123.1,47.2,176.7L44.3,761.3l187.4-49.1c51.6,28.2,109.8,43,168.9,43h0.2h0c194.8,0,353.4-158.6,353.5-353.4
		C754.3,307.3,717.6,218.5,650.9,151.7L650.9,151.7z M400.8,695.5h-0.1c-52.7,0-104.4-14.2-149.6-41l-10.7-6.4l-111.2,29.2
		l29.7-108.4l-7-11.1C122.5,511,106.9,457,107,401.5c0.1-162,131.9-293.7,293.9-293.7c78.5,0,152.3,30.6,207.7,86.1
		c55.5,55.5,86,129.3,86,207.8C694.5,563.7,562.7,695.5,400.8,695.5z"/>
	
		<linearGradient id="SVGID_1_" gradientUnits="userSpaceOnUse" x1="245.0877" y1="439.3608" x2="245.0877" y2="772.8548" gradientTransform="matrix(2.0408 0 0 -2.0408 -100.876 1637.5909)">
		<stop  offset="0" style="stop-color:#20B038"/>
		<stop  offset="1" style="stop-color:#60D66A"/>
	</linearGradient>
	<path class="st3" d="M60.5,740.9l47.9-174.8C78.9,515,63.3,457,63.4,397.6C63.4,211.6,214.8,60.4,400.7,60.4
		c90.2,0,175,35.2,238.6,98.9c63.7,63.7,98.8,148.5,98.7,238.6c-0.1,186-151.4,337.2-337.3,337.2c0,0,0,0,0,0h-0.2
		c-56.5,0-111.9-14.2-161.2-41L60.5,740.9L60.5,740.9z"/>
	<path class="st4" d="M313.4,251.4c-6.5-14.5-13.4-14.8-19.6-15.1c-5.1-0.2-10.9-0.2-16.7-0.2c-5.8,0-15.3,2.2-23.3,10.9
		c-8,8.7-30.6,29.9-30.6,72.8c0,43,31.3,84.5,35.7,90.3C263.2,416,319.3,507,408,542c73.8,29.1,88.8,23.3,104.8,21.8
		c16-1.5,51.7-21.1,58.9-41.5c7.3-20.4,7.3-37.9,5.1-41.5c-2.2-3.6-8-5.8-16.7-10.2c-8.7-4.4-51.7-25.5-59.7-28.4
		c-8-2.9-13.8-4.4-19.6,4.4c-5.8,8.7-22.5,28.4-27.6,34.2c-5.1,5.8-10.2,6.6-18.9,2.2c-8.7-4.4-36.9-13.6-70.2-43.3
		c-26-23.1-43.5-51.7-48.6-60.5c-5.1-8.7-0.5-13.5,3.8-17.8c3.9-3.9,8.7-10.2,13.1-15.3c4.4-5.1,5.8-8.7,8.7-14.6
		c2.9-5.8,1.5-10.9-0.7-15.3C338.2,311.9,321.2,268.7,313.4,251.4L313.4,251.4z"/>
	<path class="st5" d="M648,150.6c-66-66-153.7-102.4-247.2-102.5c-192.6,0-349.4,156.7-349.5,349.3c0,61.6,16.1,121.7,46.6,174.7
		l-49.6,181l185.3-48.6c51,27.8,108.5,42.5,167,42.5h0.1h0c192.6,0,349.4-156.7,349.5-349.3C750.3,304.4,713.9,216.6,648,150.6
		L648,150.6z M400.8,688.1h-0.1c-52.1,0-103.2-14-147.8-40.5l-10.6-6.3l-109.9,28.8L161.6,563l-6.9-11
		c-29.1-46.2-44.4-99.7-44.4-154.5c0.1-160.1,130.4-290.3,290.6-290.3c77.6,0,150.5,30.3,205.3,85.2c54.8,54.9,85,127.8,85,205.4
		C691.1,557.8,560.9,688.1,400.8,688.1z"/>
</g>
</svg>
